# xmcd
#
# Track frame offsets: 
#        180
#        20702
#        38298
#        56490
#        72811
#        93484
#        112419
#        128948
#        144666
#        162645
#
# Disc length: 2378 seconds
#
# Revision: 2
# Processed by: cddbd v1.5.2PL0 Copyright (c) Steve Scherf et al.
# Submitted via: ExactAudioCopy v1.0b3
#
DISCID=9009480a
DTITLE=Marsha - Room Number Three
DYEAR=1996
DGENRE=Folklore
TTITLE0=ไม่มีใคร
TTITLE1=อย่ายอมฉัน
TTITLE2=ปล่อยฉันไป
TTITLE3=บันทึกในวันเก่า
TTITLE4=เขายังอยู่
TTITLE5=รอ
TTITLE6=แปลกไหม
TTITLE7=ปลดปล่อย
TTITLE8=ฝันไว้ก่อน
TTITLE9=ขอเวลา
EXTD=
EXTT0=
EXTT1=
EXTT2=
EXTT3=
EXTT4=
EXTT5=
EXTT6=
EXTT7=
EXTT8=
EXTT9=
PLAYORDER=
